<?xml version="1.0"?>
<svg version="1.1" xmlns="http://www.w3.org/2000/svg" width="450" height="300" style=""><path fill="#d9c7d9" d="M16.0546875,156.181640625l0.17578125-0.3076171875q2.197265625-1.2890625,4.3505859375-2.607421875t4.4091796875-2.51953125l-0.05859375,0.029296875q0.3369140625-0.234375,0.68115234375-0.37353515625t0.72509765625-0.13916015625q0.234375,0,0.5712890625,0.06591796875t0.3955078125,0.38818359375q-0.05859375,0.146484375-0.6298828125,0.556640625t-1.41357421875,0.9814453125t-1.845703125,1.17919921875t-1.9189453125,1.17919921875t-1.6259765625,1.0107421875t-0.97412109375,0.5859375q0.263671875,0.205078125,0.97412109375,0.732421875t1.58203125,1.201171875t1.81640625,1.42822265625t1.75048828125,1.41357421875t1.34765625,1.16455078125t0.6298828125,0.69580078125q-0.05859375,0.4248046875-0.54931640625,0.52734375t-0.82763671875,0.1025390625t-1.0546875-0.439453125t-1.63330078125-1.11328125t-1.9189453125-1.50146484375t-1.9482421875-1.60400390625t-1.69189453125-1.40625t-1.142578125-0.9375z M30.244189453125,155.7861328125q0-2.51953125,0.13916015625-4.98046875t0.34423828125-4.98046875q0.05859375-0.6591796875,0.0732421875-1.2744140625t0.13916015625-1.07666015625t0.439453125-0.732421875t0.97412109375-0.27099609375q0.4248046875,0,0.88623046875,0.146484375t0.46142578125,0.6884765625q0,2.0361328125-0.16845703125,4.00634765625t-0.22705078125,3.91845703125q1.5966796875-1.8017578125,3.4130859375-3.36181640625t3.8525390625-3.08349609375q0.29296875-0.205078125,0.7470703125-0.2197265625q0.146484375,0,0.25634765625,0.0146484375t0.22705078125,0.0439453125q0.146484375,0.05859375,0.30029296875,0.13916015625t0.15380859375,0.22705078125q0,0.1171875-0.1318359375,0.205078125q-1.5234375,1.23046875-3.01025390625,2.5048828125t-2.83447265625,2.724609375q0.17578125,0.3369140625,0.30029296875,0.6298828125t0.27099609375,0.6298828125q1.23046875,2.9150390625,2.10205078125,5.96923828125t1.85302734375,6.05712890625q0.087890625,0.3369140625,0.25634765625,0.69580078125t0.31494140625,0.7177734375t0.25634765625,0.673828125t0.10986328125,0.52001953125q0,0.263671875-0.16845703125,0.41748046875t-0.38818359375,0.24169921875t-0.47607421875,0.1171875t-0.47607421875,0.029296875q-0.5126953125,0-0.91552734375-0.146484375t-0.63720703125-0.6591796875q-1.083984375-3.45703125-2.08740234375-6.9140625t-2.02880859375-6.97265625q-0.3369140625,0.3369140625-0.673828125,0.84228515625t-0.615234375,0.93017578125q0,2.197265625,0.1025390625,4.365234375t0.3515625,4.365234375q0.05859375,0.6298828125,0.19775390625,1.259765625t0.13916015625,1.2890625q0,0.4833984375-0.498046875,0.673828125t-1.0986328125,0.1904296875q-0.6591796875,0-0.98876953125-0.1318359375t-0.46875-0.34423828125t-0.16845703125-0.46875t-0.087890625-0.49072265625q-0.3369140625-2.314453125-0.4248046875-4.57763671875t-0.087890625-4.54833984375z M44.96103515625,159.814453125q0-0.8349609375,0.21240234375-1.72119140625t0.673828125-1.5966796875t1.16455078125-1.1572265625t1.69921875-0.44677734375q0.7470703125,0,1.57470703125,0.25634765625t1.51611328125,0.732421875t1.12060546875,1.16455078125t0.43212890625,1.5380859375q0,1.025390625-0.37353515625,1.9482421875t-1.04736328125,1.64794921875t-1.57470703125,1.142578125t-1.95556640625,0.41748046875q-0.8642578125,0-1.5087890625-0.31494140625t-1.07666015625-0.84228515625t-0.64453125-1.2451171875t-0.21240234375-1.5234375z M47.11435546875,159.78515625q0,0.263671875,0.08056640625,0.7763671875t0.24169921875,1.00341796875t0.41748046875,0.849609375t0.62255859375,0.32958984375q0.7763671875-0.087890625,1.28173828125-0.50537109375t0.8203125-1.01806640625t0.439453125-1.3037109375t0.12451171875-1.3330078125q0-0.8056640625-0.31494140625-1.34765625t-1.03271484375-0.87890625q0,0.029296875,0.029296875,0.029296875t0.029296875-0.029296875l-0.3662109375-0.087890625q-0.146484375-0.05859375-0.35888671875-0.1318359375t-0.41748046875-0.322265625q-0.5712890625,0.205078125-0.88623046875,0.52734375t-0.47607421875,0.78369140625t-0.19775390625,1.10595703125t-0.03662109375,1.552734375z M56.059716796875,159.3603515625q0-1.142578125,0.24169921875-2.07275390625t0.76904296875-1.57470703125t1.38427734375-1.00341796875t2.08740234375-0.35888671875q0.6884765625,0,1.40625,0.18310546875t1.23046875,0.68115234375q0-0.29296875,0.05859375-1.20849609375t0.146484375-2.13134765625t0.18310546875-2.548828125t0.16845703125-2.4755859375t0.1318359375-1.9189453125t0.087890625-0.87890625q0.146484375-0.4248046875,0.5419921875-0.50537109375t0.7470703125-0.08056640625q0.9228515625,0,1.13525390625,0.29296875t0.21240234375,1.171875q0,3.2080078125-0.28564453125,6.38671875t-0.28564453125,6.38671875q0,2.0654296875,0.08056640625,4.15283203125t0.57861328125,4.10888671875l0.1611328125,0.146484375l0.087890625,0.263671875l-0.2197265625,0.3369140625q-0.556640625,0.3515625-1.2890625,0.3515625l-0.05859375,0q-0.7470703125,0-1.376953125-0.3515625q-0.234375-0.146484375-0.38818359375-0.87158203125t-0.24169921875-1.5966796875t-0.1318359375-1.67724609375t-0.0732421875-1.142578125q-0.5126953125,1.171875-1.39892578125,2.01416015625t-2.23388671875,0.84228515625q-1.0546875,0-1.728515625-0.4541015625t-1.04736328125-1.1572265625t-0.52734375-1.57470703125t-0.15380859375-1.73583984375z M57.832177734375,159.4482421875q0,0.3369140625,0.08056640625,0.99609375t0.25634765625,1.318359375t0.49072265625,1.171875t0.82763671875,0.5126953125q0.6884765625-0.3369140625,1.2451171875-1.12060546875t0.95947265625-1.728515625t0.6298828125-1.8896484375t0.22705078125-1.63330078125q0-0.8642578125-0.6298828125-1.435546875t-1.5087890625-0.5712890625q-0.263671875,0-0.53466796875,0.1025390625t-0.50537109375,0.234375q-0.5419921875,0.5126953125-0.84228515625,0.93017578125t-0.4541015625,0.8642578125t-0.19775390625,0.98876953125t-0.0439453125,1.259765625z M69.926953125,160.13671875q0-1.025390625,0.22705078125-2.4169921875t0.76904296875-2.63671875t1.42822265625-2.11669921875t2.23388671875-0.87158203125q1.259765625,0,1.8896484375,0.72509765625t0.6298828125,1.95556640625q0,0.8056640625-0.30029296875,1.76513671875t-0.85693359375,1.81640625t-1.318359375,1.42822265625t-1.69921875,0.5712890625l-0.380859375-0.029296875q0,0.3955078125,0.1171875,1.06201171875t0.34423828125,1.32568359375t0.5859375,1.1572265625t0.87158203125,0.498046875q0.7470703125,0,1.435546875-0.6005859375t1.3037109375-1.3330078125t1.142578125-1.3330078125t0.966796875-0.6005859375q0.234375,0,0.4833984375,0.0732421875t0.2783203125,0.41015625q0,0.205078125-0.10986328125,0.3369140625t-0.19775390625,0.29296875q-0.4541015625,0.7763671875-0.98876953125,1.4794921875t-1.20849609375,1.2744140625t-1.47216796875,0.90087890625t-1.76513671875,0.32958984375q-1.259765625,0-2.0947265625-0.44677734375t-1.34765625-1.201171875t-0.73974609375-1.7431640625t-0.22705078125-2.07275390625z M72.5490234375,159.0234375l0.41015625,0.3662109375q0.29296875,0.263671875,0.5859375,0.1171875t0.52734375-0.53466796875t0.43212890625-0.95947265625t0.3515625-1.171875t0.22705078125-1.171875t0.0732421875-0.9521484375l0-0.498046875t-0.0439453125-0.52734375t-0.15380859375-0.41748046875t-0.34423828125-0.21240234375q-0.0732421875-0.0146484375-0.1318359375-0.0146484375q-0.498046875,0-0.849609375,0.6298828125q-0.380859375,0.703125-0.615234375,1.70654296875t-0.3369140625,2.05810546875t-0.1318359375,1.58203125z M82.204833984375,155.86669921875q-0.03662109375-0.49072265625,0.05859375-0.90087890625t0.380859375-0.66650390625t0.91552734375-0.25634765625q0.146484375,0,0.35888671875,0.03662109375t0.41748046875,0.09521484375t0.34423828125,0.17578125t0.13916015625,0.322265625l0,1.6552734375q0.5712890625-0.6591796875,1.2451171875-0.94482421875t1.5380859375-0.28564453125q0.6591796875,0,1.3037109375,0.30029296875t1.2158203125,0.79833984375t0.98876953125,1.0986328125t0.60791015625,1.201171875q0.1171875-0.5419921875,0.263671875-1.32568359375t0.43212890625-1.50146484375t0.75439453125-1.23046875t1.2451171875-0.5126953125q0.8349609375,0,1.40625,0.6005859375t0.93017578125,1.56005859375t0.5419921875,2.14599609375t0.27099609375,2.34375t0.087890625,2.16064453125l0,1.57470703125q0,0.17578125-0.1318359375,0.28564453125t-0.32958984375,0.16845703125t-0.41015625,0.0732421875t-0.32958984375,0.0146484375q-0.4541015625,0-0.82763671875-0.13916015625t-0.37353515625-0.71044921875l0-1.318359375t-0.029296875-1.70654296875t-0.1025390625-1.8310546875t-0.1904296875-1.66259765625t-0.30029296875-1.201171875t-0.44677734375-0.46875q-0.3662109375,0-0.52734375,0.41015625t-0.27099609375,1.0400390625t-0.16845703125,1.3330078125t-0.1611328125,1.3330078125t-0.32958984375,1.03271484375t-0.62255859375,0.40283203125q-0.4248046875,0-0.7470703125-0.40283203125t-0.63720703125-1.00341796875t-0.6298828125-1.2890625t-0.69580078125-1.2890625q-0.380859375-0.615234375-0.8203125-0.99609375q-0.3955078125-0.3662109375-0.8935546875-0.3515625l-0.0732421875,0q-0.6591796875,0.029296875-1.03271484375,0.47607421875t-0.5712890625,1.09130859375t-0.24169921875,1.38427734375t-0.0439453125,1.29638671875q0,0.52734375,0.087890625,1.23046875q0.05859375,0.46875,0.05859375,0.8935546875q0,0.2197265625-0.0146484375,0.4248046875q-0.0439453125,0.615234375-0.32958984375,1.03271484375t-1.06201171875,0.41748046875q-0.29296875,0-0.732421875-0.05859375t-0.5859375-0.3955078125q-0.3369140625-0.6005859375-0.5126953125-1.51611328125t-0.263671875-1.8896484375t-0.1025390625-1.93359375t-0.0146484375-1.64794921875q0-0.4833984375-0.03662109375-0.97412109375z M100.67900390625,159.5361328125q0-0.99609375,0.27099609375-1.9189453125t0.81298828125-1.64794921875t1.35498046875-1.1572265625t1.88232421875-0.43212890625q0.6591796875,0,1.45751953125,0.19775390625t1.50146484375,0.5859375t1.171875,0.98876953125t0.46875,1.376953125q0,0.3662109375-0.12451171875,0.556640625t-0.50537109375,0.1904296875l-0.1611328125-0.029296875q0.4248046875,1.142578125,0.732421875,2.34375t0.6005859375,2.40234375q0.1171875,0.234375,0.17578125,0.41748046875t0.05859375,0.35888671875q0,0.234375-0.1318359375,0.38818359375t-0.34423828125,0.22705078125t-0.439453125,0.1025390625t-0.40283203125,0.029296875q-0.6298828125,0-0.94482421875-0.2197265625t-0.4541015625-0.6005859375t-0.16845703125-0.85693359375t-0.1171875-0.95947265625q-0.17578125,0.5712890625-0.46142578125,1.11328125t-0.673828125,0.97412109375t-0.91552734375,0.6884765625t-1.1865234375,0.25634765625q-0.966796875,0-1.6259765625-0.556640625t-1.06201171875-1.36962890625t-0.5859375-1.73583984375t-0.18310546875-1.7138671875z M102.75908203125,159.3310546875q0,0.5419921875,0.0732421875,1.142578125t0.24169921875,1.1865234375t0.43212890625,1.10595703125t0.6591796875,0.91552734375q0.7177734375-0.7763671875,1.06201171875-1.8896484375t0.615234375-2.14599609375t0.615234375-1.7724609375t1.06201171875-0.73974609375q0.4541015625,0,0.76171875,0.1611328125q-0.146484375-0.3662109375-0.4833984375-0.71044921875t-0.75439453125-0.6298828125t-0.8642578125-0.46875t-0.84228515625-0.18310546875q-0.1171875,0-0.27099609375,0.03662109375t-0.24169921875,0.00732421875q-0.6005859375,0.17578125-0.98876953125,0.60791015625t-0.6298828125,1.01806640625t-0.34423828125,1.201171875t-0.1025390625,1.1572265625z M113.38901367188,159.609375l0-0.4248046875q0-0.52734375,0.029296875-0.99609375q0.029296875-0.6591796875,0.029296875-1.083984375q0-0.234375,0.029296875-0.53466796875t0.146484375-0.47607421875q0.146484375-0.146484375,0.34423828125-0.30029296875t0.43212890625-0.15380859375q0.7470703125,0,1.171875,0.16845703125t0.4541015625,0.69580078125l0.05859375,0.4541015625q0.263671875-0.6298828125,0.703125-1.56005859375t1.01806640625-1.7724609375t1.3037109375-1.435546875t1.53076171875-0.59326171875q0.7470703125,0,1.23046875,0.703125t0.76904296875,1.79443359375t0.40283203125,2.431640625t0.1611328125,2.62939453125t0.05859375,2.35107421875t0.1025390625,1.60400390625q0.05859375,0.4541015625,0.19775390625,0.95947265625t0.13916015625,0.93017578125q0,0.1171875-0.16845703125,0.22705078125t-0.35888671875,0.18310546875t-0.38818359375,0.1171875t-0.28564453125,0.0439453125q-0.5712890625,0-0.81298828125-0.85693359375t-0.30029296875-2.14599609375t-0.05859375-2.79052734375t-0.1025390625-2.79052734375t-0.41748046875-2.14599609375t-1.00341796875-0.88623046875q-0.6298828125,0-1.3037109375,0.81298828125t-1.1572265625,2.16064453125q-0.46875,1.34765625-0.64453125,3.0615234375q-0.05859375,0.5419921875-0.05859375,1.083984375q0,1.1865234375,0.2490234375,2.373046875q0.029296875,0.205078125-0.16845703125,0.3076171875t-0.49072265625,0.1611328125t-0.59326171875,0.0732421875t-0.46142578125,0.0146484375q-0.5712890625,0-0.91552734375-0.40283203125t-0.53466796875-1.03271484375t-0.25634765625-1.41357421875t-0.08056640625-1.54541015625z M125.8060546875,163.76953125q0-0.087890625,0.25634765625-0.41748046875t0.5859375-0.7177734375t0.6298828125-0.7177734375t0.38818359375-0.46142578125q1.552734375-1.8896484375,2.99560546875-4.07958984375t2.8564453125-4.4677734375t2.84912109375-4.4677734375t3.0322265625-4.07958984375q0.4541015625-0.5126953125,0.90087890625-0.93017578125t1.19384765625-0.41748046875q0.1171875,0,0.32958984375,0.0146484375t0.4248046875,0.0732421875t0.35888671875,0.1611328125t0.146484375,0.29296875q0,0.087890625-0.24169921875,0.41748046875t-0.52734375,0.7177734375t-0.54931640625,0.732421875t-0.3662109375,0.46142578125q-0.3662109375,0.4833984375-1.01806640625,1.50146484375t-1.5087890625,2.3876953125t-1.8603515625,2.958984375t-2.04345703125,3.1787109375t-2.04345703125,3.076171875t-1.875,2.6513671875t-1.53076171875,1.9189453125t-1.0107421875,0.84228515625q-0.3662109375,0.087890625-0.8203125,0.087890625q-0.146484375,0-0.41748046875-0.029296875t-0.52001953125-0.1025390625t-0.43212890625-0.21240234375t-0.18310546875-0.37353515625z M144.99067382813,150.7177734375q0.05859375-0.3369140625,0.38818359375-0.3955078125t0.56396484375-0.05859375q0.3955078125,0,0.73974609375,0.13916015625t0.66650390625,0.37353515625l-0.05859375-0.029296875q2.255859375,1.201171875,4.41650390625,2.51953125t4.34326171875,2.607421875l0.1904296875,0.3076171875l-0.1904296875,0.29296875q-0.3955078125,0.29296875-1.142578125,0.93017578125t-1.69189453125,1.41357421875t-1.9482421875,1.60400390625t-1.9189453125,1.50146484375t-1.63330078125,1.11328125t-1.0546875,0.439453125t-0.82763671875-0.10986328125t-0.54931640625-0.52001953125q0.05859375-0.17578125,0.615234375-0.6884765625t1.36962890625-1.171875t1.7578125-1.41357421875t1.80908203125-1.42822265625t1.56005859375-1.201171875t0.98876953125-0.732421875q-0.263671875-0.146484375-0.97412109375-0.5859375t-1.6259765625-1.0107421875t-1.9189453125-1.17919921875t-1.83837890625-1.17919921875t-1.40625-0.9814453125t-0.6298828125-0.556640625z"/><path fill="#" d=""/></svg>
